<svg width="28" height="25" viewBox="0 0 28 25" fill="none" xmlns="http://www.w3.org/2000/svg">
<path d="M3.5 0.5H6.5V4.25H3.5V0.5ZM9.5 0.5H12.5V4.25H9.5V0.5ZM15.5 0.5H18.5V4.25H15.5V0.5ZM24.5 9.25H21.5V6.75H0.5V20.5C0.5 22.5675 2.519 24.25 5 24.25H17C19.481 24.25 21.5 22.5675 21.5 20.5H24.5C26.1545 20.5 27.5 19.3787 27.5 18V11.75C27.5 10.3713 26.1545 9.25 24.5 9.25ZM18.5 20.5C18.5 20.8315 18.342 21.1495 18.0607 21.3839C17.7794 21.6183 17.3978 21.75 17 21.75H5C4.60218 21.75 4.22064 21.6183 3.93934 21.3839C3.65804 21.1495 3.5 20.8315 3.5 20.5V9.25H18.5V20.5ZM21.5 18V11.75H24.5L24.503 18H21.5Z" fill="#057AFF"/>
</svg>
