<svg width="36" height="20" viewBox="0 0 36 20" fill="none" xmlns="http://www.w3.org/2000/svg">
<path fill-rule="evenodd" clip-rule="evenodd" d="M35.7647 7.5C36.3294 3.4 28.2118 0 18.1353 0C8.05883 0 -0.0588154 3.4 0.50589 7.5H35.7647ZM6.38236 11.875C7.35295 11.875 7.75883 12.05 8.41177 12.325C9.20589 12.6625 10.3 13.125 12.2588 13.125C14.2177 13.125 15.3118 12.6625 16.1059 12.325C16.7588 12.0375 17.1471 11.875 18.1353 11.875C19.1059 11.875 19.5118 12.05 20.1647 12.325C20.9588 12.6625 22.0529 13.125 24.0118 13.125C25.9706 13.125 27.0647 12.6625 27.8588 12.325C28.5118 12.0375 28.9 11.875 29.8882 11.875C30.8588 11.875 31.2647 12.05 31.9177 12.325C32.7118 12.6625 33.8059 13.1125 35.7471 13.125V10.65C35.7471 10.65 34.3529 10.45 33.7 10.175C32.9059 9.8375 31.8118 9.375 29.8529 9.375C27.8941 9.375 26.8 9.8375 26.0059 10.175C25.3529 10.4625 24.9471 10.625 23.9765 10.625C23.0059 10.625 22.6 10.45 21.9471 10.175C21.1529 9.8375 20.0588 9.375 18.1 9.375C16.1412 9.375 15.0471 9.8375 14.2529 10.175C13.6 10.4625 13.2118 10.625 12.2235 10.625C11.2529 10.625 10.8471 10.45 10.1941 10.175C9.40001 9.8375 8.30589 9.375 6.34707 9.375C4.38824 9.375 3.29413 9.8375 2.50001 10.175C1.84707 10.4625 1.45883 10.625 0.470596 10.625V13.125C2.42942 13.125 3.52354 12.6625 4.3706 12.325C5.02354 12.0375 5.41177 11.875 6.38236 11.875ZM0.470596 15V17.5C0.470596 18.875 2.05883 20 4.00001 20H32.2353C34.1765 20 35.7647 18.875 35.7647 17.5V15H0.470596Z" fill="#057AFF"/>
</svg>
